# xmcd
#
# Track frame offsets:
#	150
#	22645
#	45424
#	70249
#	90738
#	115882
#	137665
#	170203
#	185718
#	204732
#	222611
#	250119
#	267129
#
# Disc length: 4133 seconds
#
# Revision: 0
# Processed by: cddbd v1.5.2PL0 Copyright (c) Steve Scherf et al.
# Submitted via: dBpowerAMP V4.0
#
DISCID=be10230d
DTITLE=Bocephus King - Willie Dixon God Damn!
DYEAR=2011
DGENRE=Blues, Jazz, Folk-Pop
TTITLE0=The Beast You Are
TTITLE1=Broken Down Rock'N'Roll Machine
TTITLE2=Your Great Big Beautiful Heart
TTITLE3=The Myth of Philadelphia
TTITLE4=Willie Dixon God Damn!
TTITLE5=Cowboy Neal
TTITLE6=That's Not Love
TTITLE7=Just As Long As You Arrive
TTITLE8=Acetylene Alley
TTITLE9=Bastards
TTITLE10=The Job
TTITLE11=The Epiphany of the Saints
TTITLE12=So Many Hells
EXTD=
EXTT0=
EXTT1=
EXTT2=
EXTT3=
EXTT4=
EXTT5=
EXTT6=
EXTT7=
EXTT8=
EXTT9=
EXTT10=
EXTT11=
EXTT12=
PLAYORDER=
